<svg xmlns="http://www.w3.org/2000/svg" viewBox="0 0 84 84"><defs><style>.cls-1{fill:#8db1d1;}.cls-2{fill:#3975a6;}.cls-3{fill:#ffcd24;}.cls-4{fill:#221f1f;}</style></defs><title>tmuxp</title><g id="Layer_2" data-name="Layer 2"><g id="Layer_1-2" data-name="Layer 1"><path class="cls-1" d="M79.33,0H44.66V34.81H84V4.67A4.67,4.67,0,0,0,79.33,0Z"/><path class="cls-2" d="M0,4.67V79.33A4.67,4.67,0,0,0,4.67,84H39.34V0H4.67A4.67,4.67,0,0,0,0,4.67Z"/><path class="cls-3" d="M44.66,84H79.33A4.67,4.67,0,0,0,84,79.33V40.13H44.66Z"/><path class="cls-4" d="M4.67,84H79.33A4.67,4.67,0,0,0,84,79.33v-2.7H0v2.7A4.67,4.67,0,0,0,4.67,84Z"/></g></g></svg>